<svg width="20" height="20" viewBox="0 0 20 20" fill="none" xmlns="http://www.w3.org/2000/svg">
<path d="M6.89642 15.7225C6.89642 15.8 6.80948 15.862 6.69985 15.862C6.5751 15.8737 6.48816 15.8116 6.48816 15.7225C6.48816 15.6449 6.5751 15.5829 6.68473 15.5829C6.79814 15.5713 6.89642 15.6333 6.89642 15.7225ZM5.72077 15.548C5.6943 15.6255 5.76991 15.7147 5.88332 15.738C5.9816 15.7768 6.09501 15.738 6.11769 15.6604C6.14037 15.5829 6.06855 15.4937 5.95514 15.4588C5.85686 15.4317 5.74723 15.4705 5.72077 15.548ZM7.39163 15.4821C7.28201 15.5092 7.2064 15.5829 7.21774 15.6721C7.22908 15.7496 7.32737 15.8 7.44078 15.7729C7.5504 15.7457 7.62601 15.6721 7.61467 15.5945C7.60333 15.5209 7.50126 15.4705 7.39163 15.4821ZM9.87903 0.625C4.63584 0.625 0.625 4.7076 0.625 10.0852C0.625 14.3849 3.26361 18.0642 7.03251 19.3592C7.51638 19.4484 7.68649 19.1421 7.68649 18.8901C7.68649 18.6497 7.67515 17.3237 7.67515 16.5095C7.67515 16.5095 5.02898 17.0911 4.47329 15.3541C4.47329 15.3541 4.04234 14.2259 3.42238 13.9351C3.42238 13.9351 2.5567 13.3264 3.48286 13.338C3.48286 13.338 4.42414 13.4156 4.94204 14.3383C5.76991 15.8349 7.15726 15.4045 7.69783 15.1487C7.78478 14.5283 8.03049 14.098 8.30267 13.8421C6.18952 13.6017 4.05746 13.2876 4.05746 9.55786C4.05746 8.49166 4.34476 7.95662 4.9496 7.27425C4.85131 7.02223 4.52999 5.98317 5.04788 4.64169C5.83795 4.38968 7.65625 5.68851 7.65625 5.68851C8.4123 5.47139 9.22505 5.35895 10.0302 5.35895C10.8354 5.35895 11.6482 5.47139 12.4042 5.68851C12.4042 5.68851 14.2225 4.3858 15.0126 4.64169C15.5305 5.98705 15.2092 7.02223 15.1109 7.27425C15.7157 7.9605 16.0862 8.49554 16.0862 9.55786C16.0862 13.2993 13.8596 13.5978 11.7465 13.8421C12.0943 14.1484 12.3891 14.7299 12.3891 15.6411C12.3891 16.9476 12.3778 18.5644 12.3778 18.8823C12.3778 19.1343 12.5517 19.4406 13.0318 19.3514C16.812 18.0642 19.375 14.3849 19.375 10.0852C19.375 4.7076 15.1222 0.625 9.87903 0.625ZM4.2994 13.9972C4.25025 14.0359 4.26159 14.1251 4.32586 14.1988C4.38634 14.2608 4.47329 14.2879 4.52243 14.2375C4.57157 14.1988 4.56023 14.1096 4.49597 14.0359C4.43548 13.9739 4.34854 13.9468 4.2994 13.9972ZM3.89113 13.6831C3.86467 13.7335 3.90247 13.7955 3.97807 13.8343C4.03856 13.8731 4.11416 13.8615 4.14063 13.8072C4.16709 13.7568 4.12928 13.6947 4.05368 13.656C3.97807 13.6327 3.91759 13.6443 3.89113 13.6831ZM5.11593 15.0634C5.05544 15.1138 5.07813 15.2301 5.16507 15.3037C5.25202 15.3929 5.36164 15.4045 5.41079 15.3425C5.45993 15.2921 5.43725 15.1758 5.36164 15.1021C5.27848 15.013 5.16507 15.0013 5.11593 15.0634ZM4.68498 14.4934C4.6245 14.5322 4.6245 14.633 4.68498 14.7222C4.74546 14.8114 4.84753 14.8501 4.89667 14.8114C4.95716 14.7609 4.95716 14.6601 4.89667 14.571C4.84375 14.4818 4.74546 14.443 4.68498 14.4934Z" fill="#3A536B"/>
</svg>
